<?xml version="1.0" encoding="UTF-8"?>
<svg id="Camada_1" data-name="Camada 1" xmlns="http://www.w3.org/2000/svg" viewBox="0 0 505.53 168.9">
  <defs>
    <style>
      .cls-1 {
        fill: #212121;
      }

      .cls-2 {
        fill: #8bbf4a;
      }
    </style>
  </defs>
  <path class="cls-2" d="M111.04,15.87c-37.88,0-68.58,30.7-68.58,68.58s30.7,68.58,68.58,68.58,68.58-30.7,68.58-68.58S148.92,15.87,111.04,15.87ZM151.61,114.4h-16.33l-21.1-19.31v19.31h-9.32l-9.04-14.5v14.5h-9.32l-16.02-25.71v-34.19h9.31l9.04,14.5v-14.5h9.31l9.04,14.5v-14.5h16.33l28.1,25.71v34.19Z"/>
  <g>
    <path class="cls-1" d="M258.03,61.35c-2.09-1.3-4.82-1.96-8.18-1.96-3.02,0-5.51.49-7.47,1.46-1.96.97-3.51,2.29-4.64,3.94-1.13,1.65-1.95,3.47-2.45,5.45h-.47c-.7-3.2-1.94-5.72-3.75-7.54-2.19-2.2-5.43-3.3-9.74-3.3-2.86,0-5.25.48-7.17,1.44-1.92.96-3.44,2.26-4.55,3.89-1.12,1.63-1.91,3.47-2.38,5.52h-.49l.39-9.81h-12.07v46.26h12.07v-30.75c.37-1.05.86-2.02,1.49-2.89.8-1.12,1.82-2,3.07-2.66,1.24-.66,2.73-.99,4.46-.99,1.85,0,3.32.38,4.41,1.13,1.08.75,1.86,1.82,2.33,3.18.47,1.37.71,2.99.71,4.88v28.1h12.07v-29.85c0-.27-.01-.55-.03-.83.37-1.08.86-2.08,1.49-2.97.79-1.12,1.81-2,3.06-2.66s2.74-.99,4.43-.99c1.85,0,3.32.38,4.41,1.13,1.08.75,1.86,1.82,2.33,3.18.47,1.37.71,2.99.71,4.88v28.1h12.12v-29.85c0-3.83-.5-7.05-1.51-9.64-1.01-2.59-2.55-4.54-4.64-5.85Z"/>
    <polygon class="cls-1" points="287.07 96.69 286.25 96.69 276.68 60.43 264.18 60.43 277.62 104.7 284.05 104.7 278.23 122.9 290.35 122.9 310.2 60.43 297.8 60.43 287.07 96.69"/>
    <path class="cls-1" d="M347.78,61.39c-2.2-1.34-5.08-2-8.63-2-3.05,0-5.59.48-7.61,1.44-2.03.96-3.63,2.26-4.81,3.89-1.18,1.63-2.02,3.47-2.52,5.52h-.51l.41-9.81h-12.07v46.26h12.07v-30.64c.42-1.1.97-2.1,1.67-3.01.86-1.12,1.98-2,3.35-2.66,1.37-.66,2.96-.99,4.79-.99,2.07,0,3.71.39,4.9,1.18,1.19.79,2.05,1.89,2.57,3.3.52,1.41.78,3.1.78,5.05v27.77h12.07v-29.52c0-3.9-.53-7.17-1.58-9.81-1.05-2.64-2.68-4.63-4.88-5.96Z"/>
    <path class="cls-1" d="M395.36,61.39c-2.2-1.34-5.08-2-8.63-2-2.99,0-5.49.48-7.5,1.44-2.01.96-3.6,2.26-4.76,3.89-1.16,1.63-2.01,3.47-2.55,5.52h-.47l.19-11.65v-14.24h-12.02v62.34h12.07v-30.41c.41-1.19.97-2.27,1.72-3.24.86-1.12,1.97-2,3.32-2.66,1.35-.66,2.94-.99,4.76-.99,2.07,0,3.71.39,4.9,1.18,1.19.79,2.05,1.89,2.57,3.3.52,1.41.78,3.1.78,5.05v27.77h12.07v-29.52c0-3.9-.53-7.17-1.58-9.81-1.05-2.64-2.68-4.63-4.88-5.96Z"/>
    <path class="cls-1" d="M441.5,64.48c-1.56-1.67-3.64-2.95-6.25-3.84-2.61-.9-5.8-1.34-9.57-1.34-2.55,0-4.92.2-7.12.61-2.2.41-4.19.94-5.96,1.58-1.78.64-3.36,1.33-4.74,2.05l-1.04,9.62c2.36-1.1,4.93-2.07,7.71-2.9,2.78-.83,5.76-1.25,8.94-1.25,3.74,0,6.44.71,8.09,2.12,1.53,1.31,2.34,3.32,2.45,6l-11.95,1.63c-6.01.82-10.39,2.3-13.16,4.46-2.77,2.15-4.15,5.48-4.15,9.97v1.32c0,4.24,1.2,7.51,3.61,9.81,2.4,2.29,5.9,3.44,10.49,3.44,3.27,0,5.91-.48,7.92-1.44,2.01-.96,3.58-2.25,4.69-3.87,1.12-1.62,1.93-3.42,2.43-5.4h.46l-.36,9.62h11.93v-28.57c0-2.8-.35-5.35-1.04-7.66-.69-2.31-1.82-4.3-3.37-5.96ZM432.21,94.73c-.96,1.08-2.18,1.96-3.65,2.62s-3.25.99-5.33.99c-2.33,0-4.03-.48-5.12-1.44-1.08-.96-1.63-2.3-1.63-4.03v-.47c0-1.76.56-3.1,1.67-4.01,1.12-.91,2.99-1.54,5.63-1.89l10.28-1.49v6.58c-.42,1.14-1.03,2.19-1.86,3.13Z"/>
    <path class="cls-2" d="M461.37,95.27c-1.13-1.23-2.84-1.84-5.14-1.84s-4.04.61-5.14,1.84c-1.1,1.23-1.65,2.94-1.65,5.14v.47c0,2.17.55,3.87,1.65,5.09,1.1,1.23,2.81,1.84,5.14,1.84s4.01-.61,5.14-1.84c1.13-1.23,1.7-2.92,1.7-5.09v-.47c0-2.2-.57-3.91-1.7-5.14Z"/>
  </g>
</svg>